# xmcd
# 
# Track frame offsets:
#     150
#     4074
#     74110
#     129012
# 
# Disc length: 2254
# 
# Revision: 1
# Processed by: cddbd v1.5.2PL0 Copyright (c) Steve Scherf et al.
# Submitted via: BonkEnc v1.0.8
# 
DISCID=2e08cc04
DTITLE=Elvin Jones - Live At The Lighthouse
DYEAR=1972
DGENRE=Jazz
TTITLE0=Introduction/Happy Birthday
TTITLE1=Sweet Mama
TTITLE2=New Breed
TTITLE3=My Ship
EXTD=YEAR: 1972
EXTT0=
EXTT1=
EXTT2=
EXTT3=
PLAYORDER=
